<svg width="144" height="144" viewBox="0 0 144 144" fill="none" xmlns="http://www.w3.org/2000/svg">
<g filter="url(#filter0_d)">
<rect x="20" y="5" width="104" height="104" rx="30" fill="white"/>
</g>
<path d="M55.1445 38.7317C54.0502 36.8529 54.6996 34.4504 56.5951 33.3656L72.0389 24.5269C73.9343 23.4422 76.3579 24.0859 77.4522 25.9648C78.5466 27.8437 77.8972 30.2462 76.0017 31.3309L60.558 40.1697C58.6626 41.2543 56.2389 40.6105 55.1445 38.7317Z" fill="#37D5C7"/>
<path d="M66.0521 86.922C64.9579 85.0432 65.6071 82.6409 67.5025 81.556L82.9464 72.7174C84.8418 71.6326 87.2653 72.2764 88.3598 74.1552C89.4542 76.0341 88.8047 78.4367 86.9093 79.5213L71.4654 88.36C69.5699 89.4448 67.1464 88.801 66.0521 86.922Z" fill="#37D5C7"/>
<path d="M73.8974 55.2188C72.803 53.3399 73.4524 50.9374 75.3478 49.8527L96.7976 37.5767C98.6929 36.492 101.116 37.1358 102.211 39.0146C103.305 40.8936 102.656 43.2961 100.76 44.3807L79.3107 56.6566C77.4152 57.7415 74.9915 57.0977 73.8974 55.2188Z" fill="#37D5C7"/>
<path d="M42.1522 73.387C41.0579 71.5081 41.7073 69.1056 43.6027 68.0207L66.7684 54.7628C68.6637 53.678 71.0875 54.3218 72.1817 56.2006C73.2761 58.0795 72.6267 60.4821 70.7312 61.5667L47.5656 74.8248C45.6702 75.9094 43.2465 75.2659 42.1522 73.387Z" fill="#37D5C7"/>
<path d="M77.3899 39.6062C76.2956 37.7272 76.945 35.3247 78.8405 34.24L83.1304 31.7848C85.0258 30.7 87.4495 31.3438 88.5436 33.2226C89.6381 35.1015 88.9887 37.504 87.0932 38.5887L82.8033 41.044C80.9079 42.1288 78.4841 41.485 77.3899 39.6062Z" fill="#37D5C7"/>
<path d="M90.0748 73.1715C88.9805 71.2926 89.6299 68.8901 91.5254 67.8054L95.8153 65.3501C97.7107 64.2655 100.134 64.909 101.229 66.788C102.323 68.6668 101.674 71.0693 99.7781 72.1542L95.4882 74.6093C93.5928 75.6942 91.169 75.0504 90.0748 73.1715Z" fill="#37D5C7"/>
<path d="M54.103 80.1534C53.0087 78.2746 53.6581 75.8721 55.5535 74.7872L59.8435 72.3322C61.7388 71.2473 64.1625 71.8911 65.2567 73.77C66.3512 75.6489 65.7017 78.0515 63.8063 79.1361L59.5164 81.5913C57.621 82.676 55.1973 82.0322 54.103 80.1534Z" fill="#37D5C7"/>
<path d="M42.2749 46.1001C41.1806 44.2212 41.83 41.8189 43.7254 40.734L48.0153 38.2789C49.9107 37.1941 52.3343 37.8379 53.4287 39.7168C54.523 41.5957 53.8736 43.9982 51.9782 45.0829L47.6883 47.5381C45.7929 48.6228 43.3692 47.979 42.2749 46.1001Z" fill="#37D5C7"/>
<path d="M42.2122 59.7415C41.1178 57.8626 41.7673 55.4603 43.6627 54.3755L70.2603 39.1534C72.1557 38.0687 74.5792 38.7124 75.6737 40.5911C76.7679 42.47 76.1187 44.8725 74.2232 45.9575L47.6255 61.1796C45.7301 62.2642 43.3065 61.6204 42.2122 59.7415Z" fill="#37D5C7"/>
<path d="M66.9728 72.7862C65.8785 70.9073 66.528 68.5047 68.4234 67.4198L95.021 52.1977C96.9162 51.1131 99.3399 51.7569 100.434 53.6358C101.529 55.5144 100.879 57.917 98.9839 59.0018L72.3863 74.2239C70.4908 75.3086 68.0671 74.6649 66.9728 72.7862Z" fill="#37D5C7"/>
<defs>
<filter id="filter0_d" x="0" y="0" width="144" height="144" filterUnits="userSpaceOnUse" color-interpolation-filters="sRGB">
<feFlood flood-opacity="0" result="BackgroundImageFix"/>
<feColorMatrix in="SourceAlpha" type="matrix" values="0 0 0 0 0 0 0 0 0 0 0 0 0 0 0 0 0 0 127 0" result="hardAlpha"/>
<feOffset dy="15"/>
<feGaussianBlur stdDeviation="10"/>
<feColorMatrix type="matrix" values="0 0 0 0 0.027451 0 0 0 0 0.054902 0 0 0 0 0.152941 0 0 0 0.1 0"/>
<feBlend mode="normal" in2="BackgroundImageFix" result="effect1_dropShadow"/>
<feBlend mode="normal" in="SourceGraphic" in2="effect1_dropShadow" result="shape"/>
</filter>
</defs>
</svg>
