<svg width="144" height="48" viewBox="0 0 144 48" fill="none" xmlns="http://www.w3.org/2000/svg">
<g clip-path="url(#clip0)">
<path d="M132.162 0.000156H11.4416C11.0016 0.000156 10.5668 0.000156 10.1279 0.002556C9.76056 0.004956 9.39611 0.011928 9.0252 0.017796C8.21942 0.0272782 7.41553 0.0981675 6.62052 0.229848C5.82663 0.364395 5.05761 0.618055 4.33946 0.982248C3.6222 1.34952 2.96681 1.82676 2.39708 2.39664C1.82436 2.96492 1.34696 3.62178 0.98322 4.34195C0.61848 5.06069 0.365569 5.83088 0.23322 6.62593C0.0996131 7.41998 0.0277181 8.22318 0.01818 9.02833C0.007044 9.39625 0.005868 9.7654 0 10.1334V37.8705C0.005868 38.2431 0.007044 38.604 0.01818 38.9768C0.027721 39.7819 0.0996161 40.585 0.23322 41.379C0.365203 42.1745 0.61813 42.9452 0.98322 43.6642C1.34679 44.382 1.82426 45.0362 2.39708 45.6014C2.96465 46.1738 3.62046 46.6513 4.33946 47.0158C5.0576 47.381 5.82654 47.6361 6.62052 47.7728C7.41566 47.9034 8.21947 47.9743 9.0252 47.9849C9.39611 47.9931 9.76056 47.9978 10.1279 47.9978C10.5668 48.0002 11.0016 48.0002 11.4416 48.0002H132.162C132.593 48.0002 133.031 48.0002 133.463 47.9978C133.828 47.9978 134.203 47.9931 134.569 47.9849C135.373 47.9749 136.175 47.9039 136.969 47.7728C137.765 47.6352 138.537 47.3801 139.259 47.0158C139.977 46.6511 140.632 46.1736 141.199 45.6014C141.771 45.034 142.249 44.3803 142.617 43.6642C142.98 42.9447 143.23 42.1741 143.36 41.379C143.494 40.5849 143.568 39.7819 143.583 38.9768C143.588 38.604 143.588 38.2431 143.588 37.8705C143.597 37.4345 143.597 37.001 143.597 36.5579V11.4435C143.597 11.0041 143.597 10.5681 143.588 10.1334C143.588 9.7654 143.588 9.39625 143.583 9.02828C143.568 8.22306 143.494 7.42004 143.36 6.62588C143.23 5.83129 142.979 5.06116 142.617 4.3419C141.876 2.89839 140.702 1.72339 139.259 0.98214C138.537 0.618837 137.765 0.365245 136.969 0.22974C136.175 0.0974794 135.373 0.0265653 134.569 0.017628C134.203 0.011772 133.828 0.00474 133.463 0.0024C133.031 0 132.593 0 132.162 0V0.000156Z" fill="black"/>
<path d="M10.1338 46.9498C9.76818 46.9498 9.41139 46.9451 9.04864 46.937C8.29718 46.9272 7.54748 46.8618 6.80568 46.7412C6.11398 46.6221 5.44392 46.4005 4.81759 46.0838C4.197 45.7696 3.63097 45.3577 3.14119 44.8638C2.64432 44.3758 2.23065 43.8097 1.91658 43.188C1.59904 42.5624 1.37929 41.8917 1.26498 41.1994C1.14152 40.4555 1.07473 39.7034 1.06518 38.9494C1.05757 38.6963 1.04761 37.8537 1.04761 37.8537V10.133C1.04761 10.133 1.05822 9.30332 1.06524 9.05956C1.07439 8.30678 1.14079 7.55579 1.26387 6.81308C1.3784 6.11891 1.59832 5.4463 1.91602 4.81856C2.22894 4.19734 2.64031 3.63084 3.13419 3.14102C3.62751 2.64655 4.19535 2.23253 4.817 1.91406C5.44189 1.59832 6.11069 1.37828 6.80098 1.26133C7.54522 1.13961 8.29753 1.0738 9.05159 1.06446L10.1344 1.0498H133.457L134.552 1.06504C135.3 1.07392 136.045 1.13914 136.782 1.26015C137.48 1.37857 138.155 1.60014 138.788 1.91757C140.033 2.55939 141.046 3.5748 141.686 4.82149C141.998 5.4449 142.215 6.11201 142.328 6.80019C142.452 7.54899 142.522 8.30589 142.536 9.06485C142.54 9.40469 142.54 9.76972 142.54 10.133C142.549 10.583 142.549 11.0113 142.549 11.4432V36.5576C142.549 36.9935 142.549 37.4189 142.54 37.8478C142.54 38.238 142.54 38.5955 142.535 38.9634C142.521 39.7089 142.453 40.4522 142.33 41.1876C142.218 41.8849 141.999 42.5608 141.682 43.1916C141.366 43.8065 140.954 44.3677 140.463 44.8545C139.973 45.351 139.406 45.7653 138.784 46.0815C138.154 46.4007 137.479 46.6231 136.782 46.7412C136.041 46.8624 135.291 46.9278 134.539 46.937C134.188 46.9451 133.82 46.9498 133.463 46.9498L132.162 46.9522L10.1338 46.9498Z" fill="white"/>
<path d="M29.9961 23.8673C30.0095 22.8258 30.2861 21.8045 30.8003 20.8986C31.3145 19.9927 32.0494 19.2316 32.9368 18.6861C32.3731 17.881 31.6294 17.2185 30.7648 16.7511C29.9003 16.2837 28.9386 16.0243 27.9563 15.9936C25.8608 15.7736 23.8293 17.2475 22.7615 17.2475C21.673 17.2475 20.0289 16.0154 18.2585 16.0518C17.1134 16.0888 15.9974 16.4218 15.0192 17.0184C14.041 17.6149 13.234 18.4547 12.6769 19.4559C10.2636 23.6343 12.0637 29.7751 14.3755 33.1527C15.5322 34.8066 16.8839 36.654 18.6528 36.5885C20.3836 36.5167 21.0301 35.4847 23.1194 35.4847C25.1893 35.4847 25.7958 36.5885 27.6005 36.5468C29.4578 36.5167 30.628 34.8856 31.7441 33.216C32.5752 32.0376 33.2147 30.7352 33.6389 29.357C32.5599 28.9006 31.639 28.1367 30.9912 27.1605C30.3434 26.1842 29.9973 25.0389 29.9961 23.8673Z" fill="black"/>
<path d="M26.5874 13.7724C27.6 12.5567 28.099 10.9941 27.9782 9.4165C26.431 9.579 25.0019 10.3184 23.9755 11.4875C23.4737 12.0586 23.0893 12.723 22.8444 13.4428C22.5995 14.1625 22.4989 14.9234 22.5483 15.6821C23.3221 15.6901 24.0877 15.5223 24.7873 15.1915C25.487 14.8607 26.1024 14.3755 26.5874 13.7724Z" fill="black"/>
<path d="M50.7621 32.5677H45.0821L43.718 36.5954H41.3121L46.6922 21.6938H49.1918L54.5719 36.5954H52.125L50.7621 32.5677ZM45.6703 30.7091H50.1727L47.9532 24.1724H47.891L45.6703 30.7091Z" fill="black"/>
<path d="M66.191 31.1637C66.191 34.5399 64.384 36.709 61.6571 36.709C60.9663 36.7452 60.2793 36.5861 59.6747 36.2499C59.0702 35.9137 58.5725 35.4141 58.2387 34.8082H58.1871V40.1895H55.957V25.7309H58.1156V27.5379H58.1566C58.5058 26.935 59.0119 26.438 59.621 26.0997C60.2302 25.7615 60.9196 25.5948 61.616 25.6172C64.3735 25.6172 66.191 27.7969 66.191 31.1637ZM63.8989 31.1637C63.8989 28.9641 62.7621 27.518 61.0278 27.518C59.3239 27.518 58.1778 28.9946 58.1778 31.1637C58.1778 33.3528 59.3239 34.8188 61.0278 34.8188C62.7621 34.8188 63.8988 33.3833 63.8988 31.1637H63.8989Z" fill="black"/>
<path d="M78.1495 31.1637C78.1495 34.5399 76.3418 36.709 73.6149 36.709C72.9241 36.7452 72.2371 36.5861 71.6326 36.2499C71.028 35.9137 70.5303 35.4141 70.1965 34.8082H70.1449V40.1895H67.9149V25.7309H70.0735V27.5379H70.1145C70.4636 26.935 70.9697 26.438 71.5788 26.0997C72.188 25.7615 72.8774 25.5948 73.5738 25.6172C76.3313 25.6172 78.1495 27.7969 78.1495 31.1637ZM75.8567 31.1637C75.8567 28.9641 74.72 27.518 72.9856 27.518C71.2817 27.518 70.1356 28.9946 70.1356 31.1637C70.1356 33.3528 71.2817 34.8188 72.9856 34.8188C74.72 34.8188 75.8567 33.3833 75.8567 31.1637Z" fill="black"/>
<path d="M86.0514 32.4434C86.2166 33.9212 87.6522 34.8914 89.6139 34.8914C91.4936 34.8914 92.8459 33.9211 92.8459 32.5887C92.8459 31.432 92.0303 30.7395 90.099 30.2649L88.1678 29.7996C85.4315 29.1387 84.1611 27.859 84.1611 25.7824C84.1611 23.2113 86.4018 21.4453 89.5822 21.4453C92.7322 21.4453 94.8908 23.2113 94.9635 25.7824H92.7123C92.5775 24.2953 91.3482 23.3977 89.5517 23.3977C87.7553 23.3977 86.526 24.3059 86.526 25.6277C86.526 26.6813 87.3111 27.3012 89.2318 27.7757L90.8736 28.1789C93.931 28.9019 95.2002 30.1301 95.2002 32.3097C95.2002 35.0976 92.9806 36.8437 89.4486 36.8437C86.1439 36.8437 83.9126 35.1386 83.7685 32.4433L86.0514 32.4434Z" fill="black"/>
<path d="M100.015 23.1597V25.7308H102.081V27.4968H100.015V33.4862C100.015 34.4167 100.429 34.8503 101.337 34.8503C101.583 34.846 101.827 34.8288 102.071 34.7987V36.5542C101.663 36.6305 101.248 36.665 100.832 36.6573C98.6326 36.6573 97.7748 35.8311 97.7748 33.7241V27.4968H96.1951V25.7308H97.7748V23.1597H100.015Z" fill="black"/>
<path d="M103.277 31.1636C103.277 27.7452 105.29 25.5972 108.43 25.5972C111.58 25.5972 113.583 27.7452 113.583 31.1636C113.583 34.5913 111.59 36.73 108.43 36.73C105.27 36.73 103.277 34.5913 103.277 31.1636ZM111.311 31.1636C111.311 28.8187 110.237 27.4347 108.43 27.4347C106.622 27.4347 105.548 28.8292 105.548 31.1636C105.548 33.5179 106.622 34.8913 108.43 34.8913C110.237 34.8913 111.311 33.5179 111.311 31.1636H111.311Z" fill="black"/>
<path d="M115.422 25.7308H117.549V27.58H117.601C117.745 27.0025 118.083 26.4921 118.559 26.1346C119.035 25.7771 119.619 25.5944 120.214 25.6171C120.471 25.6162 120.727 25.6441 120.978 25.7003V27.7863C120.654 27.6871 120.315 27.6416 119.976 27.6515C119.652 27.6384 119.329 27.6955 119.029 27.8189C118.729 27.9424 118.46 28.1293 118.239 28.3668C118.018 28.6042 117.852 28.8867 117.75 29.1947C117.649 29.5027 117.616 29.829 117.652 30.1511V36.5953H115.422L115.422 25.7308Z" fill="black"/>
<path d="M131.26 33.4042C130.96 35.3765 129.039 36.73 126.582 36.73C123.421 36.73 121.46 34.6124 121.46 31.2151C121.46 27.8073 123.432 25.5972 126.488 25.5972C129.494 25.5972 131.384 27.662 131.384 30.9562V31.7202H123.711V31.855C123.675 32.2548 123.725 32.6576 123.858 33.0366C123.99 33.4156 124.201 33.7622 124.478 34.0532C124.754 34.3443 125.089 34.5732 125.461 34.7248C125.833 34.8763 126.232 34.9471 126.633 34.9323C127.16 34.9817 127.689 34.8596 128.141 34.5843C128.593 34.309 128.944 33.8951 129.142 33.4042L131.26 33.4042ZM123.721 30.1616H129.153C129.173 29.8021 129.118 29.4423 128.993 29.1049C128.867 28.7674 128.673 28.4596 128.423 28.2007C128.173 27.9417 127.872 27.7373 127.539 27.6003C127.206 27.4632 126.848 27.3965 126.488 27.4042C126.125 27.402 125.765 27.4718 125.429 27.6095C125.093 27.7472 124.787 27.9501 124.53 28.2064C124.273 28.4628 124.069 28.7676 123.93 29.1031C123.791 29.4387 123.72 29.7985 123.721 30.1616V30.1616Z" fill="black"/>
<path d="M45.3914 10.4774C45.859 10.4438 46.3281 10.5144 46.7651 10.6842C47.202 10.8539 47.5958 11.1185 47.9181 11.4588C48.2404 11.7992 48.4832 12.2068 48.6289 12.6523C48.7745 13.0978 48.8195 13.5702 48.7606 14.0352C48.7606 16.3227 47.5243 17.6376 45.3914 17.6376H42.8051V10.4774H45.3914ZM43.9172 16.625H45.2672C45.6013 16.6449 45.9356 16.5902 46.2459 16.4646C46.5561 16.3391 46.8345 16.1459 47.0607 15.8993C47.2869 15.6526 47.4552 15.3586 47.5534 15.0386C47.6517 14.7187 47.6773 14.3809 47.6285 14.0498C47.6738 13.72 47.6455 13.3842 47.5458 13.0666C47.446 12.749 47.2773 12.4574 47.0516 12.2127C46.8259 11.968 46.5489 11.7762 46.2404 11.6512C45.9319 11.5261 45.5996 11.4708 45.2672 11.4892H43.9172V16.625Z" fill="black"/>
<path d="M50.0168 14.933C49.9828 14.5779 50.0235 14.2197 50.1361 13.8812C50.2487 13.5427 50.4308 13.2315 50.6707 12.9675C50.9107 12.7035 51.2031 12.4926 51.5293 12.3483C51.8556 12.204 52.2083 12.1294 52.5651 12.1294C52.9218 12.1294 53.2746 12.204 53.6008 12.3483C53.927 12.4926 54.2195 12.7035 54.4594 12.9675C54.6993 13.2315 54.8814 13.5427 54.994 13.8812C55.1066 14.2197 55.1473 14.5779 55.1133 14.933C55.1479 15.2885 55.1078 15.6473 54.9955 15.9863C54.8832 16.3254 54.7012 16.6371 54.4612 16.9016C54.2212 17.1661 53.9285 17.3775 53.6019 17.5221C53.2754 17.6668 52.9222 17.7415 52.5651 17.7415C52.2079 17.7415 51.8547 17.6668 51.5282 17.5221C51.2016 17.3775 50.9089 17.1661 50.6689 16.9016C50.429 16.6371 50.247 16.3254 50.1346 15.9863C50.0223 15.6473 49.9822 15.2885 50.0168 14.933ZM54.0164 14.933C54.0164 13.7618 53.4902 13.0768 52.5668 13.0768C51.6399 13.0768 51.1184 13.7618 51.1184 14.9331C51.1184 16.1137 51.6399 16.7934 52.5668 16.7934C53.4903 16.7934 54.0164 16.109 54.0164 14.933H54.0164Z" fill="black"/>
<path d="M61.8879 17.6374H60.7817L59.6649 13.6577H59.5805L58.4684 17.6374H57.3727L55.8832 12.2339H56.9649L57.9329 16.3571H58.0125L59.1235 12.2339H60.1465L61.2575 16.3571H61.3418L62.3051 12.2339H63.3715L61.8879 17.6374Z" fill="black"/>
<path d="M64.6243 12.2341H65.6508V13.0925H65.7305C65.8657 12.7842 66.0937 12.5258 66.3828 12.3532C66.6718 12.1806 67.0075 12.1026 67.343 12.1298C67.6059 12.1101 67.8699 12.1497 68.1155 12.2458C68.361 12.3419 68.5817 12.4921 68.7613 12.6851C68.941 12.8781 69.0749 13.109 69.1531 13.3608C69.2313 13.6126 69.2519 13.8788 69.2133 14.1396V17.6376H68.1469V14.4074C68.1469 13.539 67.7696 13.1072 66.9809 13.1072C66.8024 13.0989 66.6242 13.1293 66.4585 13.1962C66.2929 13.2632 66.1437 13.3653 66.0211 13.4953C65.8986 13.6254 65.8056 13.7804 65.7485 13.9498C65.6915 14.1191 65.6718 14.2988 65.6907 14.4765V17.6377H64.6243L64.6243 12.2341Z" fill="black"/>
<path d="M70.9125 10.1245H71.9789V17.6374H70.9125V10.1245Z" fill="black"/>
<path d="M73.4614 14.9331C73.4274 14.578 73.4681 14.2197 73.5807 13.8812C73.6933 13.5427 73.8755 13.2315 74.1154 12.9675C74.3554 12.7035 74.6479 12.4926 74.9741 12.3483C75.3004 12.204 75.6532 12.1294 76.0099 12.1294C76.3666 12.1294 76.7195 12.204 77.0457 12.3483C77.3719 12.4926 77.6644 12.7035 77.9044 12.9675C78.1443 13.2315 78.3265 13.5427 78.4391 13.8812C78.5517 14.2197 78.5924 14.578 78.5584 14.9331C78.593 15.2886 78.5528 15.6474 78.4405 15.9864C78.3281 16.3255 78.1461 16.6372 77.9061 16.9017C77.6661 17.1662 77.3734 17.3776 77.0468 17.5222C76.7203 17.6668 76.3671 17.7416 76.0099 17.7416C75.6527 17.7416 75.2995 17.6668 74.973 17.5222C74.6464 17.3776 74.3537 17.1662 74.1137 16.9017C73.8737 16.6372 73.6917 16.3255 73.5793 15.9864C73.467 15.6474 73.4268 15.2886 73.4614 14.9331ZM77.461 14.9331C77.461 13.7619 76.9348 13.0769 76.0114 13.0769C75.0844 13.0769 74.563 13.7619 74.563 14.9332C74.563 16.1138 75.0844 16.7935 76.0114 16.7935C76.9348 16.7935 77.461 16.1091 77.461 14.9331H77.461Z" fill="black"/>
<path d="M79.6811 16.1091C79.6811 15.1364 80.4053 14.5757 81.6908 14.496L83.1545 14.4116V13.9452C83.1545 13.3745 82.7772 13.0522 82.0483 13.0522C81.453 13.0522 81.0405 13.2708 80.9221 13.6528H79.8897C79.9987 12.7247 80.8717 12.1294 82.0975 12.1294C83.4522 12.1294 84.2162 12.8038 84.2162 13.9452V17.6372H83.1897V16.8778H83.1053C82.9341 17.1502 82.6936 17.3723 82.4084 17.5213C82.1233 17.6704 81.8037 17.7411 81.4823 17.7262C81.2554 17.7498 81.0262 17.7256 80.8092 17.6552C80.5923 17.5847 80.3926 17.4696 80.2229 17.3173C80.0532 17.1649 79.9173 16.9787 79.824 16.7706C79.7307 16.5625 79.682 16.3371 79.6811 16.1091ZM83.1545 15.6474V15.1956L81.835 15.28C81.0909 15.3298 80.7533 15.5829 80.7533 16.0593C80.7533 16.5456 81.1752 16.8286 81.7553 16.8286C81.9253 16.8458 82.097 16.8286 82.2602 16.7781C82.4234 16.7276 82.5748 16.6448 82.7054 16.5346C82.8359 16.4244 82.9429 16.289 83.0201 16.1366C83.0973 15.9842 83.143 15.8178 83.1545 15.6474Z" fill="black"/>
<path d="M85.6178 14.9333C85.6178 13.2259 86.4955 12.1443 87.8608 12.1443C88.1985 12.1287 88.5336 12.2096 88.8271 12.3775C89.1205 12.5453 89.3601 12.7933 89.5178 13.0923H89.5975V10.1245H90.6639V17.6374H89.642V16.7837H89.5577C89.3877 17.0807 89.1398 17.3255 88.8407 17.4917C88.5416 17.6579 88.2027 17.7391 87.8608 17.7265C86.4862 17.7265 85.6178 16.6448 85.6178 14.9333ZM86.7194 14.9333C86.7194 16.0794 87.2596 16.7691 88.1632 16.7691C89.062 16.7691 89.6174 16.0695 89.6174 14.938C89.6174 13.8118 89.0561 13.1023 88.1632 13.1023C87.2655 13.1023 86.7194 13.7966 86.7194 14.9333H86.7194Z" fill="black"/>
<path d="M95.076 14.933C95.042 14.5779 95.0827 14.2197 95.1953 13.8812C95.3079 13.5427 95.49 13.2315 95.7299 12.9675C95.9699 12.7035 96.2623 12.4926 96.5885 12.3483C96.9147 12.204 97.2675 12.1294 97.6243 12.1294C97.981 12.1294 98.3338 12.204 98.66 12.3483C98.9862 12.4926 99.2787 12.7035 99.5186 12.9675C99.7585 13.2315 99.9406 13.5427 100.053 13.8812C100.166 14.2197 100.206 14.5779 100.173 14.933C100.207 15.2885 100.167 15.6473 100.055 15.9863C99.9424 16.3254 99.7604 16.6371 99.5204 16.9016C99.2804 17.1661 98.9877 17.3775 98.6612 17.5221C98.3346 17.6668 97.9814 17.7415 97.6243 17.7415C97.2671 17.7415 96.9139 17.6668 96.5874 17.5221C96.2608 17.3775 95.9681 17.1661 95.7282 16.9016C95.4882 16.6371 95.3062 16.3254 95.1938 15.9863C95.0815 15.6473 95.0414 15.2885 95.076 14.933ZM99.0756 14.933C99.0756 13.7618 98.5494 13.0768 97.626 13.0768C96.6991 13.0768 96.1776 13.7618 96.1776 14.9331C96.1776 16.1137 96.6991 16.7934 97.626 16.7934C98.5495 16.7934 99.0756 16.109 99.0756 14.933Z" fill="black"/>
<path d="M101.603 12.2341H102.63V13.0925H102.71C102.845 12.7842 103.073 12.5258 103.362 12.3532C103.651 12.1806 103.987 12.1026 104.322 12.1298C104.585 12.1101 104.849 12.1497 105.095 12.2458C105.34 12.3419 105.561 12.4921 105.74 12.6851C105.92 12.8781 106.054 13.109 106.132 13.3608C106.21 13.6126 106.231 13.8788 106.192 14.1396V17.6376H105.126V14.4074C105.126 13.539 104.749 13.1072 103.96 13.1072C103.781 13.0989 103.603 13.1293 103.438 13.1962C103.272 13.2632 103.123 13.3653 103 13.4953C102.878 13.6254 102.785 13.7804 102.728 13.9498C102.671 14.1191 102.651 14.2988 102.67 14.4765V17.6377H101.603V12.2341Z" fill="black"/>
<path d="M112.218 10.8887V12.2586H113.389V13.1568H112.218V15.9354C112.218 16.5014 112.451 16.7492 112.982 16.7492C113.118 16.7488 113.254 16.7406 113.389 16.7246V17.6129C113.197 17.6471 113.003 17.6654 112.809 17.6674C111.623 17.6674 111.151 17.2502 111.151 16.2084V13.1568H110.293V12.2585H111.151V10.8887H112.218Z" fill="black"/>
<path d="M114.846 10.1245H115.903V13.1023H115.987C116.129 12.7911 116.363 12.5312 116.658 12.3579C116.953 12.1847 117.294 12.1066 117.635 12.1343C117.896 12.1201 118.158 12.1637 118.4 12.2622C118.643 12.3606 118.861 12.5114 119.039 12.7038C119.217 12.8962 119.35 13.1255 119.429 13.3753C119.507 13.625 119.53 13.8891 119.495 14.1487V17.6374H118.428V14.4118C118.428 13.5487 118.026 13.1116 117.273 13.1116C117.089 13.0966 116.905 13.1218 116.732 13.1854C116.56 13.2491 116.403 13.3497 116.274 13.4802C116.144 13.6107 116.045 13.7679 115.982 13.9409C115.92 14.1138 115.896 14.2984 115.912 14.4815V17.6374H114.846L114.846 10.1245Z" fill="black"/>
<path d="M125.714 16.1783C125.569 16.6722 125.255 17.0993 124.827 17.3851C124.399 17.6709 123.884 17.7971 123.372 17.7416C123.016 17.751 122.662 17.6828 122.335 17.5418C122.008 17.4007 121.716 17.1902 121.478 16.9249C121.241 16.6595 121.064 16.3456 120.96 16.005C120.856 15.6645 120.827 15.3053 120.876 14.9525C120.829 14.5987 120.858 14.2388 120.962 13.8971C121.065 13.5555 121.241 13.2402 121.478 12.9725C121.714 12.7048 122.005 12.491 122.331 12.3456C122.657 12.2001 123.01 12.1264 123.367 12.1295C124.871 12.1295 125.778 13.1567 125.778 14.8535V15.2256H121.962V15.2854C121.946 15.4836 121.971 15.6832 122.036 15.8713C122.1 16.0594 122.204 16.2319 122.339 16.3776C122.475 16.5234 122.639 16.6392 122.822 16.7177C123.005 16.7962 123.202 16.8356 123.401 16.8334C123.656 16.864 123.915 16.818 124.144 16.7014C124.373 16.5847 124.562 16.4027 124.687 16.1783L125.714 16.1783ZM121.962 14.4369H124.692C124.705 14.2556 124.68 14.0734 124.619 13.9021C124.558 13.7309 124.462 13.5743 124.337 13.4425C124.211 13.3106 124.06 13.2065 123.892 13.1367C123.724 13.0668 123.543 13.0329 123.362 13.0371C123.177 13.0348 122.994 13.0694 122.823 13.139C122.652 13.2085 122.497 13.3115 122.367 13.442C122.236 13.5724 122.133 13.7277 122.064 13.8985C121.994 14.0694 121.96 14.2525 121.962 14.4369H121.962Z" fill="black"/>
</g>
<defs>
<clipPath id="clip0">
<rect width="143.597" height="48" fill="white"/>
</clipPath>
</defs>
</svg>
