<svg width="162" height="48" viewBox="0 0 162 48" fill="none" xmlns="http://www.w3.org/2000/svg">
<path d="M156 48H6C2.7 48 0 45.3 0 42V6C0 2.7 2.7 0 6 0H156C159.3 0 162 2.7 162 6V42C162 45.3 159.3 48 156 48Z" fill="black"/>
<path d="M156 0H6C2.7 0 0 2.7 0 6V42C0 45.3 2.7 48 6 48H156C159.3 48 162 45.3 162 42V6C162 2.7 159.3 0 156 0ZM156 0.960003C158.779 0.960003 161.04 3.22128 161.04 6V42C161.04 44.7792 158.779 47.0405 156 47.0405H6C3.22128 47.0405 0.96 44.7792 0.96 42V6C0.96 3.22128 3.22128 0.960003 6 0.960003H156Z" fill="#A6A6A6"/>
<path d="M56.9021 12.2925C56.9021 13.2979 56.6044 14.0985 56.0081 14.6958C55.3308 15.4059 54.4481 15.7612 53.363 15.7612C52.3238 15.7612 51.4402 15.4012 50.7136 14.6803C49.9857 13.9598 49.6224 13.0664 49.6224 12.0004C49.6224 10.934 49.9857 10.0411 50.7136 9.32011C51.4402 8.59963 52.3238 8.23915 53.363 8.23915C53.8786 8.23915 54.3723 8.33995 54.841 8.54107C55.3097 8.74267 55.6857 9.01027 55.967 9.34543L55.3341 9.97867C54.8574 9.40915 54.2012 9.12463 53.363 9.12463C52.605 9.12463 51.9497 9.39091 51.3966 9.92383C50.8434 10.4574 50.567 11.1492 50.567 12.0004C50.567 12.8517 50.8434 13.5435 51.3966 14.077C51.9497 14.6099 52.605 14.8762 53.363 14.8762C54.167 14.8762 54.8373 14.6085 55.3739 14.0723C55.7223 13.723 55.9238 13.2375 55.9776 12.614H53.363V11.7492H56.852C56.8857 11.9372 56.9021 12.1177 56.9021 12.2925Z" fill="white"/>
<path d="M56.9021 12.2921H56.7821C56.7812 13.2746 56.4942 14.0377 55.9233 14.6105L55.922 14.6115L55.9215 14.6125C55.2657 15.2981 54.4228 15.6394 53.363 15.6409C52.3515 15.6394 51.5049 15.2944 50.798 14.5951C50.0926 13.8943 49.7438 13.0388 49.7424 12.0001C49.7438 10.9609 50.0926 10.1059 50.798 9.40554C51.5049 8.7057 52.3515 8.36022 53.363 8.35878C53.8631 8.35878 54.3394 8.45634 54.7936 8.65086C55.2483 8.84682 55.6074 9.10362 55.875 9.42246L55.967 9.34506L55.8821 9.26022L55.2492 9.89394L55.3341 9.9783L55.4265 9.9015C54.9276 9.30378 54.2274 9.00246 53.363 9.00426C52.577 9.0033 51.8855 9.2841 51.3136 9.8373C50.7362 10.3923 50.446 11.123 50.447 12.0001C50.446 12.8771 50.7362 13.6078 51.3136 14.1628C51.8855 14.716 52.577 14.9968 53.363 14.9959C54.1936 14.9973 54.9015 14.7155 55.4588 14.1568C55.831 13.7836 56.042 13.2667 56.0973 12.6239L56.1084 12.4936H53.483V11.8688H56.852V11.7488L56.7338 11.7699C56.7666 11.9518 56.7821 12.1247 56.7821 12.2921H56.9021H57.0221C57.0221 12.1097 57.0052 11.9223 56.97 11.7273L56.9523 11.6288H53.243V12.6136V12.7336H55.9776V12.6136L55.8581 12.6033C55.8052 13.2071 55.613 13.6618 55.2891 13.9871C54.7734 14.5009 54.1407 14.7544 53.363 14.7559C52.6331 14.7549 52.0139 14.5036 51.48 13.9904C50.9513 13.4789 50.6883 12.826 50.687 12.0001C50.6883 11.1741 50.9513 10.5212 51.48 10.0097C52.0139 9.4965 52.6331 9.24522 53.363 9.24426C54.1744 9.24618 54.7871 9.51426 55.2423 10.0557L55.3266 10.156L56.0518 9.4299L56.1296 9.35214L56.0588 9.26814C55.7639 8.91666 55.3712 8.63766 54.8883 8.43054C54.4046 8.22282 53.8941 8.11878 53.363 8.11878C52.2962 8.11782 51.3755 8.49282 50.6288 9.2349C49.8792 9.97554 49.5015 10.9065 49.5024 12.0001C49.5015 13.0931 49.8792 14.0246 50.6292 14.7657C51.3755 15.5073 52.2962 15.8818 53.363 15.8809C54.4739 15.8818 55.3955 15.5128 56.0949 14.7783L56.0081 14.6954L56.093 14.7802C56.7146 14.1591 57.023 13.3201 57.0221 12.2921H56.9021Z" fill="white"/>
<path d="M62.4333 9.28364H59.1544V11.5665H62.1113V12.4317H59.1544V14.7146H62.4333V15.5991H58.23V8.39912H62.4333V9.28364Z" fill="white"/>
<path d="M62.4332 9.28474V9.16474H59.0343V11.6876H61.9913V12.3125L59.0343 12.3128V14.8357H62.3132V15.4802H58.35V8.52022H62.3132V9.28474H62.4332V9.16474V9.28474H62.5532V8.40022V8.28021H58.11V15.7202H62.5532V14.7157V14.5957H59.2743V12.5528H62.2313V11.5676V11.4476H59.2743V9.40474H62.5532V9.28474H62.4332Z" fill="white"/>
<path d="M66.3347 15.5991H65.4088V9.28364H63.3979V8.39912H68.3456V9.28364H66.3347V15.5991Z" fill="white"/>
<path d="M66.3347 15.6002V15.4802H65.5289V9.16474H63.518V8.52022H68.2257V9.16474H66.2147V15.6002H66.3347V15.4802V15.6002H66.4547V9.40474H68.4657V8.40022V8.28021H63.278V9.28474V9.40474H65.2889V15.7202H66.3347H66.4547V15.6002H66.3347Z" fill="white"/>
<path d="M71.9255 15.5991V8.39912H72.8504V15.5991H71.9255Z" fill="white"/>
<path d="M71.9255 15.6002H72.0455V8.52022H72.7304V15.4802H71.9255V15.6002H72.0455H71.9255V15.7202H72.8504H72.9704V8.28021H71.9255H71.8055V15.7202H71.9255V15.6002Z" fill="white"/>
<path d="M76.9542 15.5991H76.0284V9.28364H74.0176V8.39912H78.9652V9.28364H76.9542V15.5991Z" fill="white"/>
<path d="M76.9542 15.6002V15.4802H76.1484V9.16474H74.1376V8.52022H78.8452V9.16474H76.8342V15.6002H76.9542V15.4802V15.6002H77.0742V9.40474H79.0852V8.40022V8.28021H73.8976V9.28474V9.40474H75.9084V15.7202H76.9542H77.0742V15.6002H76.9542Z" fill="white"/>
<path d="M83.7352 14.0672C84.2681 14.6067 84.9202 14.8762 85.6913 14.8762C86.4624 14.8762 87.1149 14.6067 87.6469 14.0672C88.1803 13.5277 88.4476 12.838 88.4476 12.0004C88.4476 11.1628 88.1803 10.4732 87.6469 9.93367C87.1149 9.39415 86.4624 9.12463 85.6913 9.12463C84.9202 9.12463 84.2681 9.39415 83.7352 9.93367C83.2031 10.4732 82.936 11.1628 82.936 12.0004C82.936 12.838 83.2031 13.5277 83.7352 14.0672ZM88.3313 14.67C87.6234 15.3979 86.7431 15.7612 85.6913 15.7612C84.6384 15.7612 83.7586 15.3979 83.0523 14.67C82.3439 13.9429 81.9915 13.0528 81.9915 12.0004C81.9915 10.948 82.3439 10.0579 83.0523 9.33091C83.7586 8.60287 84.6384 8.23915 85.6913 8.23915C86.7376 8.23915 87.6155 8.60479 88.3266 9.33559C89.0368 10.0664 89.3921 10.9546 89.3921 12.0004C89.3921 13.0528 89.0376 13.9429 88.3313 14.67Z" fill="white"/>
<path d="M83.7352 14.0668L83.6499 14.1512C84.2026 14.7123 84.8921 14.9973 85.6913 14.9959C86.49 14.9973 87.1805 14.7123 87.7323 14.1512C88.2886 13.5896 88.5684 12.863 88.5676 12.0001C88.5684 11.1371 88.2886 10.4105 87.7323 9.84894C87.1805 9.28782 86.49 9.00282 85.6913 9.00426C84.8921 9.00282 84.2026 9.28782 83.6499 9.84894C83.0949 10.4105 82.8145 11.1371 82.816 12.0001C82.8145 12.863 83.0949 13.5896 83.6499 14.1512L83.7352 14.0668L83.8205 13.9825C83.3115 13.4644 83.0569 12.8128 83.056 12.0001C83.0569 11.1873 83.3115 10.5357 83.8205 10.0177C84.3342 9.49974 84.9478 9.2457 85.6913 9.24426C86.4342 9.2457 87.0492 9.49974 87.5616 10.0177C88.0716 10.5357 88.3261 11.1873 88.3271 12.0001C88.3261 12.8128 88.0716 13.4644 87.5616 13.9825C87.0492 14.5004 86.4342 14.7544 85.6913 14.7559C84.9478 14.7544 84.3342 14.5004 83.8205 13.9825L83.7352 14.0668ZM88.3313 14.6696L88.2455 14.5862C87.5574 15.2912 86.716 15.6394 85.6913 15.6409C84.6661 15.6394 83.8247 15.2912 83.1379 14.5862L83.1347 14.5825L83.1379 14.5862C82.4513 13.8788 82.1124 13.0257 82.1115 12.0001C82.1124 10.9744 82.4513 10.1213 83.1379 9.41394C83.8247 8.70894 84.6661 8.36022 85.6913 8.35878C86.7094 8.36022 87.5489 8.71038 88.2408 9.4191C88.9299 10.1297 89.2707 10.9815 89.2721 12.0001C89.2707 13.0257 88.9308 13.8788 88.2455 14.5862L88.3313 14.6696L88.4176 14.753C89.145 14.0059 89.5129 13.0791 89.5121 12.0001C89.5129 10.9271 89.1436 10.0023 88.4128 9.25182C87.6816 8.49846 86.7657 8.11746 85.6913 8.11878C84.6113 8.11746 83.6926 8.49665 82.966 9.24714V9.24666C82.2371 9.99426 81.8705 10.921 81.8715 12.0001C81.8705 13.0791 82.2371 14.0059 82.966 14.7535L82.9692 14.7568L82.966 14.753C83.6926 15.5035 84.6113 15.8818 85.6913 15.8809C86.7708 15.8818 87.6895 15.5035 88.4176 14.753L88.3313 14.6696Z" fill="white"/>
<path d="M90.6905 15.5991V8.39912H91.8165L95.3156 14.0002H95.3555L95.3156 12.6127V8.39912H96.2415V15.5991H95.2758L91.6148 9.72656H91.575L91.6148 11.1146V15.5991H90.6905Z" fill="white"/>
<path d="M90.6905 15.6002H90.8105V8.52022H91.7498L95.2491 14.1213H95.3555H95.4787L95.4357 12.612V8.52022H96.1215V15.4802H95.3424L91.6815 9.60766H91.575H91.4518L91.4948 11.1176V15.4802H90.6905V15.6002H90.8105H90.6905V15.7202H91.6148H91.7348V11.1138L91.695 9.72442L91.575 9.72766V9.84766H91.6148V9.72766L91.5131 9.79149L95.2092 15.7202H96.2415H96.3615V8.28021H95.3157H95.1957V12.6152L95.2355 14.0046L95.3555 14.0013V13.8813H95.3157V14.0013L95.4174 13.9376L91.8829 8.28021H90.6905H90.5705V15.7202H90.6905V15.6002Z" fill="white"/>
<path d="M128.323 35.9992H130.562V20.9977H128.323V35.9992ZM148.492 26.4016L145.925 32.9055H145.848L143.184 26.4016H140.772L144.767 35.4919L142.489 40.5484H144.826L150.982 26.4016H148.492ZM135.793 34.2953C135.059 34.2953 134.036 33.9287 134.036 33.0213C134.036 31.8634 135.311 31.4195 136.41 31.4195C137.395 31.4195 137.857 31.6318 138.456 31.9216C138.282 33.3109 137.086 34.2953 135.793 34.2953ZM136.063 26.0734C134.442 26.0734 132.763 26.7877 132.068 28.3703L134.056 29.2C134.48 28.3703 135.271 28.0998 136.102 28.0998C137.26 28.0998 138.437 28.795 138.456 30.0301V30.1843C138.05 29.9527 137.183 29.6055 136.121 29.6055C133.979 29.6055 131.797 30.7824 131.797 32.9827C131.797 34.99 133.554 36.2832 135.522 36.2832C137.028 36.2832 137.857 35.6077 138.379 34.8166H138.456V35.9743H140.617V30.2227C140.617 27.5598 138.63 26.0734 136.063 26.0734ZM122.225 28.2277H119.04V23.0856H122.225C123.899 23.0856 124.849 24.4716 124.849 25.6566C124.849 26.8192 123.899 28.2277 122.225 28.2277ZM122.167 20.9977H116.802V35.9992H119.04V30.3156H122.167C124.649 30.3156 127.088 28.5189 127.088 25.6566C127.088 22.7945 124.649 20.9977 122.167 20.9977ZM92.91 34.2981C91.3631 34.2981 90.0679 33.0029 90.0679 31.224C90.0679 29.4264 91.3631 28.1116 92.91 28.1116C94.4373 28.1116 95.6358 29.4264 95.6358 31.224C95.6358 33.0029 94.4373 34.2981 92.91 34.2981ZM95.4812 27.2416H95.4038C94.9013 26.6424 93.9342 26.1011 92.7165 26.1011C90.1646 26.1011 87.8255 28.3435 87.8255 31.224C87.8255 34.0853 90.1646 36.3085 92.7165 36.3085C93.9342 36.3085 94.9013 35.7671 95.4038 35.1489H95.4812V35.8834C95.4812 37.8363 94.4373 38.8801 92.7554 38.8801C91.3828 38.8801 90.5321 37.8939 90.1838 37.0627L88.2315 37.8747C88.7921 39.2279 90.2808 40.8906 92.7554 40.8906C95.3846 40.8906 97.6078 39.3437 97.6078 35.574V26.4105H95.4812V27.2416ZM99.1542 35.9992H101.397V20.9973H99.1542V35.9992ZM104.703 31.0501C104.645 29.0781 106.23 28.0731 107.371 28.0731C108.26 28.0731 109.014 28.5174 109.265 29.1559L104.703 31.0501ZM111.662 29.349C111.238 28.2081 109.942 26.1011 107.293 26.1011C104.664 26.1011 102.48 28.1697 102.48 31.2048C102.48 34.0661 104.645 36.3085 107.544 36.3085C109.884 36.3085 111.238 34.8779 111.798 34.0468L110.058 32.8866C109.478 33.7374 108.685 34.2981 107.544 34.2981C106.404 34.2981 105.592 33.7759 105.07 32.7516L111.894 29.9289L111.662 29.349ZM57.2926 27.6671V29.8323H62.4736C62.3189 31.0501 61.9129 31.9393 61.2942 32.5581C60.5405 33.3123 59.3611 34.1434 57.2926 34.1434C54.1026 34.1434 51.6089 31.5723 51.6089 28.3824C51.6089 25.1926 54.1026 22.6211 57.2926 22.6211C59.0133 22.6211 60.2695 23.2979 61.1976 24.1679L62.7249 22.6408C61.4297 21.4032 59.7089 20.4559 57.2926 20.4559C52.9233 20.4559 49.2502 24.0132 49.2502 28.3824C49.2502 32.7516 52.9233 36.3085 57.2926 36.3085C59.6513 36.3085 61.4297 35.5356 62.8215 34.0853C64.2521 32.6547 64.6969 30.6442 64.6969 29.0205C64.6969 28.5174 64.6584 28.0539 64.5807 27.6671H57.2926ZM70.5873 34.2981C69.0403 34.2981 67.7063 33.0221 67.7063 31.2048C67.7063 29.3682 69.0403 28.1116 70.5873 28.1116C72.1336 28.1116 73.4676 29.3682 73.4676 31.2048C73.4676 33.0221 72.1336 34.2981 70.5873 34.2981ZM70.5873 26.1011C67.7644 26.1011 65.4637 28.2469 65.4637 31.2048C65.4637 34.1434 67.7644 36.3085 70.5873 36.3085C73.4095 36.3085 75.7102 34.1434 75.7102 31.2048C75.7102 28.2469 73.4095 26.1011 70.5873 26.1011ZM81.7631 34.2981C80.2168 34.2981 78.8826 33.0221 78.8826 31.2048C78.8826 29.3682 80.2168 28.1116 81.7631 28.1116C83.3096 28.1116 84.6436 29.3682 84.6436 31.2048C84.6436 33.0221 83.3096 34.2981 81.7631 34.2981ZM81.7631 26.1011C78.9403 26.1011 76.6402 28.2469 76.6402 31.2048C76.6402 34.1434 78.9403 36.3085 81.7631 36.3085C84.5855 36.3085 86.8862 34.1434 86.8862 31.2048C86.8862 28.2469 84.5855 26.1011 81.7631 26.1011Z" fill="white"/>
<path d="M12.6118 38.8677L12.5226 38.7824C12.1734 38.4129 11.9673 37.8392 11.9673 37.0962V37.2711V10.7319C11.9673 10.7295 11.9673 10.7277 11.9673 10.7258C11.9673 10.728 11.9673 10.73 11.9673 10.7324V10.9077C11.9673 10.1032 12.2076 9.4972 12.6104 9.13384L27.4781 24.0012L12.6118 38.8677ZM11.9673 10.7243C11.9673 10.6582 11.9691 10.594 11.9724 10.5308C11.9691 10.5935 11.9673 10.6582 11.9673 10.7243ZM11.9724 10.5279C11.9724 10.527 11.9724 10.5261 11.9728 10.5251C11.9724 10.5261 11.9724 10.527 11.9724 10.5279ZM11.9728 10.5195C11.9728 10.519 11.9728 10.5185 11.9728 10.518C11.9728 10.5185 11.9728 10.519 11.9728 10.5195Z" fill="url(#paint0_linear)"/>
<path d="M32.4332 29.1348L32.5463 29.0706L38.4178 25.7344C38.9776 25.4162 39.3506 25.0304 39.5368 24.6222C39.3511 25.0304 38.9779 25.4167 38.4178 25.7349L32.5463 29.071L32.4332 29.1348ZM32.4347 28.959L27.4781 24.0015L32.4342 19.0449L38.4178 22.4443C39.1776 22.876 39.6042 23.4325 39.6755 24.001C39.6755 24.0015 39.6755 24.0025 39.6755 24.0033C39.6042 24.5706 39.1776 25.1275 38.4178 25.5591L32.4347 28.959Z" fill="url(#paint1_linear)"/>
<path d="M13.6716 39.4331C13.2563 39.4331 12.8939 39.2981 12.6113 39.0431L12.6118 39.0426C12.8944 39.2976 13.2572 39.4331 13.6726 39.4331C13.7086 39.4331 13.7452 39.4321 13.7822 39.4303C13.7447 39.4321 13.7076 39.4331 13.6716 39.4331ZM13.6721 39.2573C13.2568 39.2578 12.8944 39.1223 12.6118 38.8673V38.8669L27.4781 24.0005L32.4347 28.9579L15.0164 38.8547C14.5345 39.1279 14.0779 39.2573 13.6721 39.2573ZM12.6076 39.0399C12.5813 39.016 12.5555 38.9907 12.5302 38.9644L12.6076 39.0399Z" fill="url(#paint2_linear)"/>
<path d="M27.4781 24.0024L12.6103 9.13504C12.8929 8.88052 13.2548 8.74552 13.6697 8.74552C14.0766 8.74552 14.5335 8.87536 15.0164 9.14908L32.4342 19.0458L27.4781 24.0024ZM32.5463 18.9339L15.0164 8.97388C14.5335 8.70004 14.0766 8.5702 13.6697 8.5702C13.6677 8.5702 13.6664 8.5702 13.6645 8.5702C13.6669 8.5702 13.6687 8.5702 13.6716 8.5702C14.0775 8.5702 14.534 8.69956 15.0164 8.9734L32.5463 18.9339Z" fill="url(#paint3_linear)"/>
<path d="M39.6755 23.9995C39.6042 23.431 39.1776 22.8745 38.4178 22.4428L32.4342 19.0434L32.5458 18.9318H32.5463L38.4178 22.2679C39.2555 22.7442 39.675 23.3718 39.6755 23.9995Z" fill="url(#paint4_linear)"/>
<defs>
<linearGradient id="paint0_linear" x1="26.1598" y1="10.4519" x2="6.02081" y2="30.5909" gradientUnits="userSpaceOnUse">
<stop stop-color="#00A0FF"/>
<stop offset="0.00657445" stop-color="#00A1FF"/>
<stop offset="0.2601" stop-color="#00BEFF"/>
<stop offset="0.5122" stop-color="#00D2FF"/>
<stop offset="0.7604" stop-color="#00DFFF"/>
<stop offset="1" stop-color="#00E3FF"/>
</linearGradient>
<linearGradient id="paint1_linear" x1="40.6013" y1="24.0022" x2="11.5649" y2="24.0022" gradientUnits="userSpaceOnUse">
<stop stop-color="#FFE000"/>
<stop offset="0.4087" stop-color="#FFBD00"/>
<stop offset="0.7754" stop-color="#FFA500"/>
<stop offset="1" stop-color="#FF9C00"/>
</linearGradient>
<linearGradient id="paint2_linear" x1="29.7924" y1="26.7549" x2="2.48243" y2="54.0648" gradientUnits="userSpaceOnUse">
<stop stop-color="#FF3A44"/>
<stop offset="1" stop-color="#C31162"/>
</linearGradient>
<linearGradient id="paint3_linear" x1="8.75673" y1="0.212921" x2="20.9517" y2="12.4079" gradientUnits="userSpaceOnUse">
<stop stop-color="#32A071"/>
<stop offset="0.0685" stop-color="#2DA771"/>
<stop offset="0.4762" stop-color="#15CF74"/>
<stop offset="0.8009" stop-color="#06E775"/>
<stop offset="1" stop-color="#00F076"/>
</linearGradient>
<linearGradient id="paint4_linear" x1="40.6013" y1="24.0007" x2="11.5649" y2="24.0007" gradientUnits="userSpaceOnUse">
<stop stop-color="#FFE840"/>
<stop offset="0.4087" stop-color="#FFCE40"/>
<stop offset="0.7754" stop-color="#FFBC40"/>
<stop offset="1" stop-color="#FFB540"/>
</linearGradient>
</defs>
</svg>
