<svg width="100" height="37" viewBox="0 0 100 37" fill="none" xmlns="http://www.w3.org/2000/svg">
<g clip-path="url(#clip0)">
<path d="M6.18886 11.4835C5.69383 10.6336 5.98761 9.54681 6.84508 9.05607L13.8314 5.0577C14.6888 4.567 15.7852 4.8582 16.2802 5.70814C16.7753 6.55812 16.4815 7.64495 15.6241 8.13564L8.63775 12.134C7.78033 12.6247 6.68393 12.3335 6.18886 11.4835Z" fill="#37D5C7"/>
<path d="M11.1231 33.2833C10.6281 32.4334 10.9218 31.3466 11.7792 30.8558L18.7656 26.8575C19.623 26.3668 20.7194 26.658 21.2145 27.508C21.7095 28.3579 21.4158 29.4448 20.5583 29.9354L13.5719 33.9338C12.7145 34.4245 11.6182 34.1333 11.1231 33.2833Z" fill="#37D5C7"/>
<path d="M14.672 18.9403C14.1769 18.0904 14.4707 17.0036 15.3281 16.5129L25.0314 10.9595C25.8888 10.4689 26.9851 10.7601 27.4803 11.61C27.9752 12.46 27.6816 13.5468 26.8241 14.0375L17.1209 19.5907C16.2634 20.0815 15.167 19.7903 14.672 18.9403Z" fill="#37D5C7"/>
<path d="M0.311428 27.1595C-0.18361 26.3096 0.110168 25.2228 0.967598 24.732L11.4471 18.7345C12.3045 18.2437 13.401 18.535 13.8959 19.3849C14.391 20.2349 14.0972 21.3217 13.2398 21.8124L2.76029 27.81C1.90286 28.3006 0.806469 28.0095 0.311428 27.1595Z" fill="#37D5C7"/>
<path d="M16.252 11.8801C15.7569 11.0301 16.0507 9.94326 16.9081 9.45257L18.8488 8.3419C19.7062 7.85116 20.8026 8.1424 21.2976 8.99233C21.7927 9.84227 21.4989 10.9291 20.6415 11.4198L18.7008 12.5305C17.8434 13.0212 16.7469 12.73 16.252 11.8801Z" fill="#37D5C7"/>
<path d="M21.9903 27.0631C21.4952 26.2132 21.789 25.1263 22.6465 24.6356L24.5871 23.525C25.4445 23.0343 26.5409 23.3254 27.036 24.1754C27.531 25.0253 27.2372 26.1122 26.3798 26.603L24.4391 27.7135C23.5817 28.2043 22.4853 27.9131 21.9903 27.0631Z" fill="#37D5C7"/>
<path d="M5.71761 30.2213C5.22258 29.3714 5.51636 28.2846 6.37378 27.7938L8.31443 26.6832C9.17185 26.1925 10.2683 26.4837 10.7632 27.3337C11.2583 28.1836 10.9645 29.2705 10.1071 29.7611L8.16645 30.8718C7.30904 31.3625 6.21263 31.0713 5.71761 30.2213Z" fill="#37D5C7"/>
<path d="M0.36697 14.8155C-0.128068 13.9656 0.165709 12.8789 1.02315 12.3881L2.96379 11.2774C3.82121 10.7867 4.91758 11.0779 5.41265 11.9279C5.90768 12.7779 5.6139 13.8647 4.75648 14.3554L2.81583 15.4661C1.95841 15.9567 0.862004 15.6655 0.36697 14.8155Z" fill="#37D5C7"/>
<path d="M0.338527 20.9879C-0.15651 20.1379 0.137267 19.0512 0.994699 18.5604L13.0267 11.6744C13.8842 11.1837 14.9805 11.4749 15.4756 12.3248C15.9706 13.1748 15.6769 14.2616 14.8194 14.7524L2.78739 21.6384C1.92996 22.1291 0.83357 21.8378 0.338527 20.9879Z" fill="#37D5C7"/>
<path d="M11.5395 26.8894C11.0445 26.0394 11.3383 24.9526 12.1957 24.4618L24.2277 17.5757C25.0851 17.0851 26.1815 17.3763 26.6766 18.2262C27.1716 19.0761 26.8777 20.163 26.0204 20.6537L13.9884 27.5398C13.131 28.0304 12.0346 27.7392 11.5395 26.8894Z" fill="#37D5C7"/>
<path fill-rule="evenodd" clip-rule="evenodd" d="M45.9936 17.8527C45.0072 17.2713 44.2264 16.4704 43.6548 15.4552L43.6527 15.4514C43.0941 14.4308 42.8192 13.2711 42.8192 11.9823C42.8192 10.6825 43.0773 9.52448 43.6047 8.51879L43.6056 8.51695C44.1452 7.50223 44.887 6.69939 45.8291 6.11592C46.7774 5.52864 47.8645 5.23975 49.0793 5.23975C50.276 5.23975 51.3341 5.51979 52.2392 6.09308C53.1535 6.64734 53.8594 7.42261 54.3539 8.41037C54.8484 9.3979 55.0912 10.515 55.0912 11.7535C55.0912 12.0788 54.9876 12.3726 54.7622 12.6013L54.7558 12.608L54.7488 12.6142C54.5221 12.8215 54.2373 12.912 53.9272 12.912H45.2227C45.3074 13.4102 45.4632 13.8648 45.6882 14.2783C46.0639 14.9412 46.5687 15.4596 47.2055 15.839C47.8364 16.2148 48.57 16.4077 49.4175 16.4077C49.918 16.4077 50.4207 16.3233 50.9267 16.1523C51.4539 15.9642 51.8535 15.7396 52.141 15.4878L52.1479 15.4815C52.3719 15.2955 52.6341 15.1976 52.9226 15.1949C53.2074 15.1769 53.4728 15.2521 53.6963 15.4333L53.706 15.4413L53.7152 15.4498C53.9594 15.6786 54.1175 15.962 54.1217 16.2948C54.141 16.6314 54 16.9167 53.7479 17.1305C53.2143 17.59 52.5452 17.967 51.7502 18.2675L51.7442 18.2697C50.9456 18.5558 50.1696 18.702 49.4175 18.702C48.1475 18.702 47.0051 18.423 45.9994 17.856L45.9936 17.8527ZM51.0516 8.07121C50.517 7.71843 49.865 7.53397 49.0793 7.53397C48.2802 7.53397 47.5954 7.72522 47.0115 8.09708C46.4235 8.47192 45.9629 8.99279 45.6294 9.66927C45.4715 9.99706 45.3518 10.351 45.2712 10.7322H52.7078C52.6359 10.3172 52.5152 9.93133 52.3465 9.57342C52.0429 8.92895 51.6129 8.43225 51.0553 8.07341L51.0516 8.07121Z" fill="#223356"/>
<path d="M59.9982 5.90845L60.0009 5.90675C60.7788 5.44623 61.6373 5.21729 62.5687 5.21729C63.2853 5.21729 63.8843 5.3186 64.3323 5.55511C64.5645 5.6778 64.7599 5.84722 64.8737 6.0786C64.9899 6.31383 65.0009 6.5708 64.9406 6.82544L64.9387 6.8342C64.8636 7.1196 64.7143 7.37726 64.447 7.51595C64.2355 7.63314 63.9908 7.66616 63.7387 7.64795L63.7369 7.64781C63.5438 7.63272 63.3207 7.61759 63.0668 7.60245L63.0613 7.60213L63.0562 7.60167C62.2576 7.5293 61.5617 7.61745 60.9594 7.85365L60.9553 7.85525C60.3677 8.07718 59.906 8.41891 59.5585 8.87888C59.2336 9.32875 59.0654 9.86943 59.0654 10.518V17.3607C59.0654 17.7031 58.97 18.0177 58.7369 18.2543C58.5037 18.491 58.1935 18.588 57.8562 18.588C57.5189 18.588 57.2088 18.491 56.9756 18.2543C56.7424 18.0177 56.647 17.7031 56.647 17.3607V6.58181C56.647 6.23949 56.7424 5.92482 56.9756 5.68816C57.2088 5.45151 57.5189 5.3546 57.8562 5.3546C58.1935 5.3546 58.5037 5.45151 58.7369 5.68816C58.97 5.92482 59.0654 6.23949 59.0654 6.58181V6.62515C59.3488 6.35222 59.6599 6.11313 59.9982 5.90845Z" fill="#223356"/>
<path d="M66.9871 18.2547L66.976 18.2421C66.7548 17.9952 66.6585 17.6817 66.6585 17.3379V11.7687C66.6585 11.4264 66.7544 11.1117 66.9875 10.8751C67.229 10.6296 67.5424 10.5186 67.8903 10.5186C68.2239 10.5186 68.523 10.6301 68.7488 10.8749C68.994 11.1082 69.0995 11.4221 69.0995 11.7687V17.3379C69.0995 17.6912 68.9903 18.009 68.7484 18.2544C68.5189 18.4873 68.2193 18.588 67.8903 18.588C67.5516 18.588 67.2428 18.4907 66.9995 18.2662L66.9871 18.2547Z" fill="#223356"/>
<path fill-rule="evenodd" clip-rule="evenodd" d="M89.9009 17.8284L89.8968 17.8263C88.9281 17.2297 88.1571 16.4223 87.5871 15.4094L87.5848 15.4056C87.0267 14.3863 86.7516 13.2423 86.7516 11.9823C86.7516 10.7061 87.0346 9.55296 87.6097 8.53232L87.612 8.5286C88.1982 7.51461 88.9935 6.71503 89.9935 6.13468C90.9982 5.53602 92.1276 5.23975 93.3719 5.23975C94.6157 5.23975 95.7382 5.53579 96.729 6.13523C97.729 6.71567 98.5166 7.51562 99.088 8.53026C99.6779 9.54966 99.9765 10.7019 99.9926 11.9778V11.9823V17.3603C99.9926 17.7048 99.8793 18.0125 99.641 18.2539L99.6355 18.2599L99.629 18.2657C99.3899 18.4867 99.0908 18.5875 98.7613 18.5875C98.4313 18.5875 98.1318 18.4867 97.8922 18.2657L97.8866 18.2599L97.8802 18.2539C97.6428 18.0125 97.5295 17.7048 97.5295 17.3603V16.942C97.1677 17.307 96.7581 17.6256 96.3014 17.8977L96.2991 17.8987C95.3829 18.437 94.3438 18.702 93.1917 18.702C91.977 18.702 90.877 18.413 89.9009 17.8284ZM95.5129 15.8179L95.5161 15.8161C96.1525 15.4369 96.6493 14.9193 97.0092 14.2579L97.0111 14.2557C97.3848 13.5807 97.5746 12.8256 97.5746 11.9823C97.5746 11.1225 97.3843 10.369 97.0124 9.71169L97.0092 9.70665C96.6493 9.0453 96.1525 8.52769 95.5161 8.14844L95.5087 8.14372C94.8926 7.75517 94.1843 7.55685 93.3719 7.55685C92.576 7.55685 91.8654 7.75448 91.2327 8.14551L91.2281 8.14849C90.5903 8.52847 90.0848 9.04759 89.7088 9.71169C89.3369 10.369 89.147 11.1225 89.147 11.9823C89.147 12.825 89.3359 13.5797 89.7092 14.2544C90.0857 14.9177 90.5903 15.4365 91.2281 15.8161C91.8613 16.1936 92.5733 16.3848 93.3719 16.3848C94.1866 16.3848 94.8968 16.193 95.5129 15.8179Z" fill="#223356"/>
<path d="M34.8594 17.785L34.86 17.7864C34.9683 18.0242 35.115 18.2275 35.3112 18.3714C35.5115 18.5181 35.7428 18.5877 35.991 18.5877C36.2479 18.5877 36.4885 18.5216 36.6973 18.3765C36.9038 18.2331 37.0574 18.0276 37.1677 17.785L42.1035 6.98823C42.2368 6.71415 42.2457 6.42191 42.1388 6.13686C42.0309 5.83352 41.8233 5.60577 41.5375 5.46079L41.5283 5.45612L41.5188 5.45194C41.2281 5.3255 40.9234 5.31582 40.6218 5.41612C40.3094 5.50904 40.082 5.72217 39.953 6.02482L35.9967 14.8397L31.977 6.00978L31.972 6.00015C31.8294 5.73143 31.6163 5.53289 31.3372 5.42401C31.039 5.30756 30.7343 5.33779 30.4487 5.48152C30.1593 5.61966 29.9356 5.83366 29.8222 6.13287C29.7118 6.42415 29.7248 6.72277 29.8536 7.00607L34.8594 17.785Z" fill="#223356"/>
<path fill-rule="evenodd" clip-rule="evenodd" d="M72.3456 15.4136C72.9323 16.4273 73.7272 17.234 74.7258 17.8294L74.7295 17.8315C75.7346 18.4143 76.8627 18.7025 78.1065 18.7025C79.3346 18.7025 80.4484 18.4141 81.4387 17.8309C82.4383 17.251 83.2267 16.4589 83.7995 15.4585C84.3876 14.4418 84.6954 13.3066 84.7272 12.0606V1.24962C84.7272 0.900185 84.6194 0.583939 84.3696 0.350085C84.1332 0.112669 83.8323 -0.000488281 83.4954 -0.000488281C83.1585 -0.000488281 82.8576 0.112676 82.6203 0.350099C82.371 0.583952 82.2636 0.900198 82.2636 1.24962V7.00256C81.8489 6.58617 81.3659 6.23371 80.8184 5.94528C79.9516 5.47316 78.9848 5.24022 77.9258 5.24022C76.7097 5.24022 75.6092 5.53737 74.6332 6.13772C73.6631 6.71927 72.8912 7.51967 72.3212 8.53279L72.3189 8.53651C71.7608 9.55582 71.4853 10.6998 71.4853 11.9599C71.4853 13.2361 71.7691 14.3893 72.3438 15.4099L72.3456 15.4136ZM81.7465 9.71221C82.1194 10.3704 82.3088 11.1166 82.3088 11.9599C82.3088 12.8196 82.1184 13.5733 81.7465 14.2305L81.7438 14.2356C81.383 14.8977 80.8853 15.424 80.2461 15.8189C79.6304 16.1937 78.9207 16.3853 78.1065 16.3853C77.3088 16.3853 76.5977 16.1946 75.9645 15.818C75.3254 15.4226 74.8194 14.8949 74.4433 14.2305C74.071 13.5733 73.8811 12.8196 73.8811 11.9599C73.8811 11.1166 74.0705 10.3704 74.4433 9.71221L74.4447 9.70942C74.8212 9.03027 75.3263 8.50491 75.9622 8.12608C76.5959 7.74858 77.3074 7.55733 78.1065 7.55733C78.9207 7.55733 79.6313 7.74913 80.247 8.12434L80.2507 8.12608C80.8848 8.50422 81.3816 9.02807 81.7424 9.70442L81.7465 9.71221Z" fill="#223356"/>
<path d="M66.9871 9.13792L66.9756 9.1253C66.7544 8.87838 66.6585 8.5649 66.6585 8.22106V6.85947C66.6585 6.51719 66.7544 6.20253 66.9875 5.96587C67.229 5.72036 67.5424 5.60938 67.8903 5.60938C68.2239 5.60938 68.523 5.72096 68.7484 5.96573C68.994 6.19899 69.0995 6.51293 69.0995 6.85947V8.22106C69.0995 8.57439 68.9903 8.89213 68.7484 9.13755C68.5189 9.37044 68.2193 9.47116 67.8903 9.47116C67.5516 9.47116 67.2428 9.37384 66.9995 9.14934L66.9871 9.13792Z" fill="#37D5C7"/>
<path d="M35.882 33.0207C35.6461 33.0207 35.4691 32.8935 35.3512 32.6391L32.0774 25.7266C32.0184 25.5994 32.0136 25.4722 32.0627 25.345C32.1118 25.2178 32.2101 25.12 32.3576 25.0515C32.4953 24.983 32.628 24.9732 32.7558 25.0221C32.8836 25.0711 32.9819 25.1591 33.0507 25.2863L36.1917 32.0521H35.5871L38.6839 25.2863C38.7429 25.1493 38.8412 25.0613 38.9788 25.0221C39.1263 24.9732 39.2689 24.9781 39.4065 25.0368C39.5441 25.1053 39.6375 25.208 39.6866 25.345C39.7358 25.4722 39.7309 25.5945 39.6719 25.7119L36.4424 32.6391C36.3244 32.8935 36.1377 33.0207 35.882 33.0207Z" fill="#223356"/>
<path d="M44.5413 33.0946C43.7843 33.0946 43.106 32.9185 42.5062 32.5663C41.9066 32.2043 41.4297 31.715 41.0758 31.0986C40.7318 30.4822 40.5597 29.7875 40.5597 29.0146C40.5597 28.2318 40.7366 27.5323 41.0906 26.9159C41.4543 26.2995 41.9459 25.8152 42.5652 25.4629C43.1846 25.1009 43.8826 24.9199 44.6592 24.9199C45.4359 24.9199 46.129 25.1009 46.7387 25.4629C47.3581 25.8152 47.8447 26.2995 48.1986 26.9159C48.5622 27.5323 48.7489 28.2318 48.759 29.0146L48.3019 29.3668C48.3019 30.0713 48.1346 30.7073 47.8005 31.2747C47.476 31.8324 47.0286 32.2776 46.4585 32.6103C45.8979 32.9332 45.259 33.0946 44.5413 33.0946ZM44.6592 32.0673C45.2295 32.0673 45.7357 31.9352 46.1784 31.671C46.6304 31.4068 46.9843 31.0448 47.2401 30.585C47.5055 30.1153 47.6383 29.5919 47.6383 29.0146C47.6383 28.4275 47.5055 27.9041 47.2401 27.4442C46.9843 26.9844 46.6304 26.6224 46.1784 26.3582C45.7357 26.0843 45.2295 25.9473 44.6592 25.9473C44.0989 25.9473 43.5926 26.0843 43.1403 26.3582C42.6881 26.6224 42.3293 26.9844 42.0638 27.4442C41.7984 27.9041 41.6657 28.4275 41.6657 29.0146C41.6657 29.5919 41.7984 30.1153 42.0638 30.585C42.3293 31.0448 42.6881 31.4068 43.1403 31.671C43.5926 31.9352 44.0989 32.0673 44.6592 32.0673ZM48.1839 33.0212C48.0166 33.0212 47.8788 32.9723 47.771 32.8745C47.6627 32.7668 47.6088 32.6299 47.6088 32.4635V29.9539L47.889 28.7945L48.759 29.0146V32.4635C48.759 32.6299 48.7046 32.7668 48.5968 32.8745C48.4885 32.9723 48.3507 33.0212 48.1839 33.0212Z" fill="#223356"/>
<path d="M54.4769 33.1091C53.7788 33.1091 53.1544 32.9673 52.6041 32.6835C52.0534 32.39 51.6161 31.9644 51.2917 31.4067C50.9769 30.849 50.8198 30.169 50.8198 29.3667V25.5509C50.8198 25.3943 50.8737 25.2622 50.982 25.1546C51.0898 25.047 51.2226 24.9932 51.3802 24.9932C51.547 24.9932 51.6848 25.047 51.7931 25.1546C51.9009 25.2622 51.9553 25.3943 51.9553 25.5509V29.3667C51.9553 29.9733 52.0682 30.4723 52.2944 30.8637C52.5304 31.255 52.8447 31.5485 53.2382 31.7442C53.641 31.9399 54.0935 32.0378 54.5949 32.0378C55.0765 32.0378 55.5092 31.9448 55.8926 31.7589C56.2857 31.573 56.5954 31.3186 56.8216 30.9958C57.0474 30.6729 57.1608 30.306 57.1608 29.895H57.9719C57.9424 30.5114 57.77 31.0642 57.4557 31.5534C57.1507 32.0329 56.7378 32.4144 56.217 32.6982C55.6958 32.9721 55.1156 33.1091 54.4769 33.1091ZM57.7212 33.0211C57.5539 33.0211 57.4161 32.9721 57.3083 32.8743C57.2097 32.7667 57.1608 32.6248 57.1608 32.4487V25.5509C57.1608 25.3845 57.2097 25.2524 57.3083 25.1546C57.4161 25.047 57.5539 24.9932 57.7212 24.9932C57.888 24.9932 58.0258 25.047 58.1341 25.1546C58.2419 25.2524 58.2963 25.3845 58.2963 25.5509V32.4487C58.2963 32.6248 58.2419 32.7667 58.1341 32.8743C58.0258 32.9721 57.888 33.0211 57.7212 33.0211Z" fill="#223356"/>
<path d="M62.6871 33.0212C62.294 33.0212 61.9401 32.9136 61.6254 32.6984C61.3208 32.4831 61.0797 32.1847 60.9028 31.8031C60.7355 31.4215 60.6521 30.9812 60.6521 30.4822V22.1168C60.6521 21.9504 60.7014 21.8183 60.7996 21.7205C60.9079 21.6129 61.0452 21.5591 61.2125 21.5591C61.3797 21.5591 61.5125 21.6129 61.6106 21.7205C61.7189 21.8183 61.7728 21.9504 61.7728 22.1168V30.4822C61.7728 30.903 61.8562 31.2454 62.0235 31.5096C62.2005 31.7738 62.4217 31.9058 62.6871 31.9058H63.0558C63.2032 31.9058 63.3212 31.9596 63.4097 32.0673C63.4982 32.1651 63.5424 32.2972 63.5424 32.4635C63.5424 32.6299 63.4784 32.7668 63.3507 32.8745C63.2327 32.9723 63.0756 33.0212 62.8788 33.0212H62.6871Z" fill="#223356"/>
<path d="M68.2645 33.021C67.7438 33.021 67.2765 32.8987 66.8636 32.6541C66.4608 32.4095 66.141 32.0768 65.9051 31.6561C65.6691 31.2256 65.5512 30.7364 65.5512 30.1885V23.0118C65.5512 22.8455 65.6005 22.7085 65.6986 22.6009C65.8069 22.4932 65.9447 22.4395 66.1115 22.4395C66.2788 22.4395 66.4166 22.4932 66.5244 22.6009C66.6327 22.7085 66.6866 22.8455 66.6866 23.0118V30.1885C66.6866 30.6875 66.8341 31.0984 67.129 31.4213C67.424 31.7344 67.8028 31.891 68.2645 31.891H68.6627C68.8203 31.891 68.9479 31.9448 69.0461 32.0524C69.1447 32.16 69.1936 32.297 69.1936 32.4633C69.1936 32.6297 69.1346 32.7666 69.0166 32.8743C68.8986 32.9721 68.7512 33.021 68.5742 33.021H68.2645ZM64.5926 26.27C64.4452 26.27 64.3226 26.2259 64.224 26.1379C64.1258 26.04 64.0765 25.9226 64.0765 25.7856C64.0765 25.6389 64.1258 25.5215 64.224 25.4334C64.3226 25.3356 64.4452 25.2866 64.5926 25.2866H68.353C68.5005 25.2866 68.6235 25.3356 68.7217 25.4334C68.8203 25.5215 68.8691 25.6389 68.8691 25.7856C68.8691 25.9226 68.8203 26.04 68.7217 26.1379C68.6235 26.2259 68.5005 26.27 68.353 26.27H64.5926Z" fill="#223356"/>
</g>
<defs>
<clipPath id="clip0">
<rect width="100" height="36.6906" fill="white"/>
</clipPath>
</defs>
</svg>
